<svg width="1237" height="247" viewBox="0 0 1237 247" fill="none" xmlns="http://www.w3.org/2000/svg">
<path d="M167.721 241.83L156.349 207.666H75.7542L65.5565 241.83H0L75.4722 4.98096H151.743L230.082 241.83H167.721ZM91.3562 155.549H139.055L115.041 75.0019L91.3562 155.549Z" fill="#232A53"/>
<path d="M326.514 246.906C301.466 246.906 280.695 241.596 264.247 231.022C247.799 220.401 236.286 206.115 229.753 188.07L281.541 157.947C290.329 178.906 305.884 189.432 328.253 189.432C346.768 189.432 355.979 184.169 355.979 173.689C355.979 166.781 350.669 161.189 340.001 156.913C335.49 155.033 325.621 151.931 310.301 147.514C288.637 141.217 271.484 132.335 258.89 120.962C246.248 109.59 239.951 93.7059 239.951 73.4045C239.951 51.5053 247.799 33.8356 263.448 20.3014C279.144 6.76712 298.694 0 322.143 0C341.975 0 359.598 4.6054 374.918 13.8632C390.238 23.121 401.986 36.5143 410.116 54.137L359.363 83.9311C351.938 66.3554 339.625 57.5205 322.472 57.5205C315.235 57.5205 309.784 58.9774 306.072 61.938C302.359 64.8986 300.479 68.6111 300.479 73.1695C300.479 78.3858 303.252 82.8033 308.75 86.4218C314.248 90.0403 325.01 94.2698 340.988 99.0162C352.267 103.058 361.43 106.394 368.573 108.932C375.717 111.517 383.424 115.558 391.788 121.056C400.153 126.555 406.357 133.651 410.398 142.345C414.487 150.991 416.507 161.189 416.507 172.891C416.507 196.106 408.283 214.292 391.788 227.357C375.341 240.421 353.535 247 326.467 247L326.514 246.906Z" fill="#232A53"/>
<path d="M680.095 4.98096V241.83H619.849V114.289L562.329 209.357H556.219L499.028 114.618V241.83H438.453V4.98096H499.028L559.274 106.159L619.849 4.98096H680.095Z" fill="#232A53"/>
<path d="M853.878 61.8905H843.022L838.511 48.4502H816.847L812.429 61.8905H803.735L822.439 5.4978H834.939L853.878 61.8905ZM835.785 40.3203L827.561 15.1785L819.337 40.3203H835.785Z" fill="#4965AB"/>
<path d="M869.481 61.8905H860.083V5.4978H869.481V61.8905Z" fill="#4965AB"/>
<path d="M890.204 15.3195H880.806V5.4978H890.204V15.2725V15.3195ZM890.204 61.8905H880.806V20.1599H890.204V61.8905Z" fill="#4965AB"/>
<path d="M937.199 61.8911H928.223C927.424 59.3534 926.954 56.5337 926.766 53.4791C924.276 59.6823 919.529 62.7839 912.621 62.7839C908.486 62.7839 905.102 61.5621 902.612 59.1184C900.121 56.6747 898.852 53.6201 898.852 49.9076C898.852 40.3209 907.264 35.5275 924.088 35.5275C924.746 35.5275 925.639 35.5275 926.766 35.5275V32.3789C926.766 28.0554 923.806 25.8937 917.932 25.8937C912.057 25.8937 908.956 28.0554 908.204 32.3789L900.168 31.204C900.591 27.7265 902.377 24.8599 905.525 22.6511C908.674 20.4424 913.185 19.2676 919.153 19.2676C922.396 19.2676 925.028 19.5495 927.048 20.0665C929.069 20.5834 930.808 21.5233 932.218 22.7921C933.628 24.061 934.614 25.4708 935.131 26.9746C935.648 28.4784 935.93 31.0161 935.93 34.5876V53.4322C935.93 56.1578 936.353 58.9774 937.152 61.8441L937.199 61.8911ZM926.766 40.6498C914.595 40.6498 908.533 43.5634 908.533 49.3437C908.533 51.0825 909.144 52.5393 910.366 53.7611C911.587 54.9829 913.42 55.5939 915.911 55.5939C919.482 55.5939 922.208 54.466 924.041 52.1633C925.874 49.8606 926.766 47.3229 926.766 44.4093V40.5558V40.6498Z" fill="#4965AB"/>
<path d="M981.749 61.8907H972.351V35.8091C972.351 33.0364 971.74 30.9687 970.471 29.6059C969.202 28.2431 967.698 27.5381 965.865 27.5381C963.422 27.5381 961.26 28.619 959.427 30.7807C957.595 32.9424 956.655 36.185 956.655 40.5085V61.9377H947.256V20.1601H955.856V29.8408C958.863 22.8388 963.093 19.3142 968.497 19.3142C972.163 19.3142 975.311 20.4891 977.896 22.7918C980.481 25.0945 981.796 29.1829 981.796 34.9632V61.8907H981.749Z" fill="#4965AB"/>
<path d="M1012.34 54.5598V61.8908C1009.52 62.5017 1007.36 62.7837 1005.81 62.7837C1003.27 62.7837 1001.11 62.2668 999.276 61.2799C997.443 60.293 996.127 58.8832 995.281 57.1444C994.435 55.4057 994.012 52.727 994.012 49.0615V27.4443H988.796V20.1132H994.529L995.375 9.25764L1003.08 8.55273V20.1132H1011.45V27.4443H1003.08V47.7926C1003.08 50.4243 1003.55 52.2101 1004.49 53.15C1005.43 54.0898 1007.22 54.5598 1009.9 54.5598C1010.65 54.5598 1011.45 54.5598 1012.25 54.4658L1012.34 54.5598ZM1007.55 66.4022L1000.26 81.6753H996.503L999.041 66.4022H1007.55Z" fill="#4965AB"/>
<path d="M1055.95 61.8911H1046.97C1046.18 59.3534 1045.71 56.5337 1045.52 53.4791C1043.03 59.6823 1038.28 62.7839 1031.37 62.7839C1027.24 62.7839 1023.85 61.5621 1021.36 59.1184C1018.87 56.6747 1017.6 53.6201 1017.6 49.9076C1017.6 40.3209 1026.02 35.5275 1042.84 35.5275C1043.5 35.5275 1044.39 35.5275 1045.52 35.5275V32.3789C1045.52 28.0554 1042.56 25.8937 1036.68 25.8937C1030.81 25.8937 1027.71 28.0554 1026.96 32.3789L1018.92 31.204C1019.34 27.7265 1021.13 24.8599 1024.28 22.6511C1027.43 20.4424 1031.94 19.2676 1037.9 19.2676C1041.15 19.2676 1043.78 19.5495 1045.8 20.0665C1047.82 20.5834 1049.56 21.5233 1050.97 22.7921C1052.38 24.061 1053.37 25.4708 1053.88 26.9746C1054.4 28.4784 1054.68 31.0161 1054.68 34.5876V53.4322C1054.68 56.1578 1055.1 58.9774 1055.9 61.8441L1055.95 61.8911ZM1045.56 40.6498C1033.39 40.6498 1027.33 43.5634 1027.33 49.3437C1027.33 51.0825 1027.94 52.5393 1029.16 53.7611C1030.39 54.9829 1032.22 55.5939 1034.71 55.5939C1038.28 55.5939 1041.01 54.466 1042.84 52.1633C1044.67 49.8606 1045.56 47.3229 1045.56 44.4093V40.5558V40.6498Z" fill="#4965AB"/>
<path d="M803.735 137.597L813.604 135.482C814.779 141.074 819.337 143.847 827.232 143.847C830.851 143.847 833.624 143.142 835.55 141.685C837.477 140.228 838.464 138.49 838.464 136.375C838.464 134.824 838.041 133.414 837.148 132.099C836.255 130.783 834.375 129.749 831.509 129.044L820.747 126.224C817.035 125.237 814.309 124.157 812.57 122.935C810.831 121.713 809.375 119.974 808.341 117.765C807.307 115.557 806.743 113.16 806.743 110.622C806.743 105.594 808.623 101.552 812.382 98.4979C816.142 95.4433 820.935 93.9395 826.762 93.9395C831.603 93.9395 835.926 95.0203 839.733 97.135C843.539 99.2498 845.983 102.257 847.017 106.158L837.336 108.555C835.832 104.278 832.402 102.163 826.95 102.163C823.802 102.163 821.358 102.821 819.713 104.137C818.068 105.453 817.223 107.145 817.223 109.165C817.223 112.408 819.854 114.664 825.071 115.933L834.657 118.329C840.485 119.786 844.385 121.948 846.359 124.814C848.333 127.681 849.319 130.83 849.319 134.26C849.319 139.806 847.252 144.129 843.069 147.325C838.887 150.52 833.482 152.118 826.856 152.118C821.264 152.118 816.377 150.943 812.194 148.593C808.012 146.244 805.192 142.625 803.829 137.644L803.735 137.597Z" fill="#4965AB"/>
<path d="M876.435 143.847V151.178C873.615 151.789 871.453 152.071 869.902 152.071C867.365 152.071 865.203 151.554 863.37 150.568C861.537 149.581 860.222 148.171 859.376 146.432C858.53 144.693 858.107 142.015 858.107 138.349V116.732H852.891V109.401H858.624L859.47 98.5452L867.177 97.8403V109.401H875.542V116.732H867.177V137.08C867.177 139.712 867.647 141.498 868.587 142.438C869.526 143.377 871.312 143.847 873.991 143.847C874.743 143.847 875.542 143.847 876.341 143.753L876.435 143.847Z" fill="#4965AB"/>
<path d="M918.682 151.178H909.942V142.156C907.592 148.735 903.174 152.024 896.783 152.024C892.977 152.024 889.969 150.849 887.76 148.5C885.552 146.15 884.424 142.86 884.424 138.631V109.448H894.058V136.61C894.058 139.618 894.716 141.592 896.031 142.531C897.347 143.471 898.663 143.941 899.932 143.941C901.953 143.941 904.067 143.048 906.182 141.216C908.297 139.383 909.378 135.482 909.378 129.514V109.495H918.776V151.225L918.682 151.178Z" fill="#4965AB"/>
<path d="M964.266 151.18H955.478V142.768C953.034 148.971 948.946 152.073 943.166 152.073C938.043 152.073 934.143 149.958 931.417 145.681C928.691 141.405 927.329 136.095 927.329 129.797C927.329 123.923 928.738 118.754 931.605 114.383C934.472 110.013 938.466 107.804 943.73 107.804C948.993 107.804 952.846 110.248 954.914 115.135V94.834H964.313V151.227L964.266 151.18ZM954.867 126.555C954.867 123.171 954.068 120.54 952.47 118.66C950.873 116.78 948.758 115.84 946.22 115.84C943.448 115.84 941.286 117.062 939.688 119.459C938.09 121.855 937.338 125.521 937.338 130.314C937.338 139.619 940.252 144.272 946.079 144.272C948.382 144.272 950.45 143.285 952.235 141.264C954.021 139.243 954.914 136.706 954.914 133.604V126.555H954.867Z" fill="#4965AB"/>
<path d="M1002.05 137.879L1010.55 139.054C1009.47 142.813 1007.31 145.915 1004.12 148.405C1000.92 150.896 996.927 152.071 992.086 152.071C986.306 152.071 981.654 150.144 978.129 146.244C974.604 142.343 972.866 137.08 972.866 130.454C972.866 123.828 974.651 118.94 978.176 114.805C981.701 110.669 986.541 108.602 992.65 108.602C998.759 108.602 1003.18 110.622 1006.47 114.711C1009.76 118.799 1011.35 124.016 1011.35 130.407V131.488H982.687C982.687 134.307 982.969 136.61 983.486 138.302C984.003 139.994 985.084 141.497 986.682 142.766C988.28 144.035 990.253 144.646 992.65 144.646C997.303 144.646 1000.45 142.39 1002.05 137.879ZM1001.48 125.425C1001.48 122.418 1000.55 119.974 998.759 118.094C996.974 116.215 994.765 115.228 992.18 115.228C989.596 115.228 987.434 116.121 985.695 117.906C983.956 119.692 982.922 122.183 982.64 125.425H1001.48Z" fill="#4965AB"/>
<path d="M1054.45 151.179H1045.05V125.098C1045.05 122.325 1044.44 120.257 1043.17 118.895C1041.9 117.532 1040.4 116.827 1038.56 116.827C1036.12 116.827 1033.96 117.908 1032.13 120.069C1030.29 122.231 1029.35 125.474 1029.35 129.797V151.226H1019.95V109.496H1028.55V119.177C1031.56 112.174 1035.79 108.65 1041.19 108.65C1044.86 108.65 1048.01 109.825 1050.59 112.127C1053.18 114.43 1054.49 118.519 1054.49 124.299V151.226L1054.45 151.179Z" fill="#4965AB"/>
<path d="M1085.04 143.847V151.178C1082.22 151.789 1080.06 152.071 1078.51 152.071C1075.97 152.071 1073.81 151.554 1071.98 150.568C1070.14 149.581 1068.83 148.171 1067.98 146.432C1067.14 144.693 1066.71 142.015 1066.71 138.349V116.732H1061.5V109.401H1067.23L1068.08 98.5452L1075.78 97.8403V109.401H1084.15V116.732H1075.78V137.08C1075.78 139.712 1076.25 141.498 1077.19 142.438C1078.13 143.377 1079.92 143.847 1082.6 143.847C1083.35 143.847 1084.15 143.847 1084.95 143.753L1085.04 143.847ZM1080.2 155.69L1072.92 170.963H1069.16L1071.69 155.69H1080.2Z" fill="#4965AB"/>
<path d="M1102.34 104.609H1092.94V94.834H1102.34V104.609ZM1102.34 151.18H1092.94V109.449H1102.34V151.18Z" fill="#4965AB"/>
<path d="M1123.06 151.178H1113.66V94.7856H1123.06V151.178Z" fill="#4965AB"/>
<path d="M1150.69 152.071C1144.53 152.071 1139.84 149.862 1136.55 145.398C1133.26 140.933 1131.66 135.905 1131.66 130.172C1131.66 124.016 1133.44 118.846 1137.06 114.758C1140.68 110.669 1145.38 108.602 1151.3 108.602C1156.89 108.602 1161.5 110.575 1165.07 114.57C1168.64 118.564 1170.48 123.734 1170.48 130.125C1170.48 136.516 1168.6 142.014 1164.88 146.009C1161.17 150.003 1156.42 152.024 1150.69 152.024V152.071ZM1151.02 144.27C1157.36 144.27 1160.51 139.571 1160.51 130.125C1160.51 125.848 1159.76 122.512 1158.26 120.021C1156.75 117.53 1154.4 116.309 1151.25 116.309C1148.11 116.309 1145.62 117.577 1144.02 120.115C1142.42 122.653 1141.67 126.036 1141.67 130.266C1141.67 134.824 1142.51 138.302 1144.16 140.651C1145.8 143.001 1148.11 144.223 1150.97 144.223L1151.02 144.27Z" fill="#4965AB"/>
<path d="M1188.52 151.179H1179.12V109.448H1187.63V119.411C1188.85 115.51 1190.49 112.691 1192.61 110.905C1194.72 109.119 1196.89 108.226 1199.14 108.226C1199.42 108.226 1199.85 108.226 1200.36 108.226V118.33C1195.57 118.33 1192.42 119.881 1190.82 122.935C1189.23 125.99 1188.47 128.95 1188.47 131.817V151.132L1188.52 151.179Z" fill="#4965AB"/>
<path d="M843.399 240.469H834.611V232.057C832.167 238.26 828.079 241.362 822.298 241.362C817.176 241.362 813.276 239.247 810.55 234.97C807.824 230.694 806.461 225.384 806.461 219.087C806.461 213.212 807.871 208.043 810.738 203.673C813.605 199.302 817.599 197.093 822.862 197.093C828.126 197.093 831.979 199.537 834.047 204.424V184.123H843.446V240.516L843.399 240.469ZM833.953 215.844C833.953 212.46 833.154 209.829 831.556 207.949C829.958 206.069 827.844 205.129 825.306 205.129C822.533 205.129 820.372 206.351 818.774 208.748C817.176 211.145 816.424 214.81 816.424 219.603C816.424 228.908 819.338 233.561 825.165 233.561C827.468 233.561 829.535 232.574 831.321 230.553C833.107 228.532 834 225.995 834 222.893V215.844H833.953Z" fill="#4965AB"/>
<path d="M864.03 193.898H854.631V184.123H864.03V193.898ZM864.03 240.469H854.631V198.738H864.03V240.469Z" fill="#4965AB"/>
<path d="M909.896 240.467H900.498V214.385C900.498 211.613 899.887 209.545 898.618 208.182C897.349 206.819 895.845 206.114 894.012 206.114C891.569 206.114 889.407 207.195 887.574 209.357C885.741 211.519 884.802 214.761 884.802 219.085V240.514H875.403V198.783H884.003V208.464C887.01 201.462 891.24 197.938 896.644 197.938C900.31 197.938 903.458 199.112 906.043 201.415C908.628 203.718 909.943 207.806 909.943 213.586V240.514L909.896 240.467Z" fill="#4965AB"/>
<path d="M998.15 240.468H987.765V191.124L972.163 240.468H966.852L951.156 191.124V240.468H942.838V184.075H958.722L970.518 220.401L982.125 184.075H998.103V240.468H998.15Z" fill="#4965AB"/>
<path d="M1026.35 241.359C1020.19 241.359 1015.49 239.15 1012.2 234.686C1008.91 230.221 1007.31 225.193 1007.31 219.46C1007.31 213.304 1009.1 208.134 1012.72 204.046C1016.34 199.957 1021.04 197.89 1026.96 197.89C1032.55 197.89 1037.16 199.863 1040.73 203.858C1044.3 207.852 1046.13 213.022 1046.13 219.413C1046.13 225.804 1044.25 231.302 1040.54 235.297C1036.83 239.291 1032.08 241.312 1026.35 241.312V241.359ZM1026.68 233.558C1033.02 233.558 1036.17 228.859 1036.17 219.413C1036.17 215.136 1035.42 211.8 1033.91 209.309C1032.41 206.818 1030.06 205.597 1026.91 205.597C1023.76 205.597 1021.27 206.865 1019.67 209.403C1018.08 211.941 1017.32 215.324 1017.32 219.554C1017.32 224.112 1018.17 227.59 1019.81 229.939C1021.46 232.289 1023.76 233.511 1026.63 233.511L1026.68 233.558Z" fill="#4965AB"/>
<path d="M1064.13 240.468H1054.73V184.075H1064.13V240.468Z" fill="#4965AB"/>
<path d="M1109.76 240.469H1100.97V232.057C1098.53 238.26 1094.44 241.362 1088.66 241.362C1083.54 241.362 1079.64 239.247 1076.91 234.97C1074.19 230.694 1072.82 225.384 1072.82 219.087C1072.82 213.212 1074.23 208.043 1077.1 203.673C1079.97 199.302 1083.96 197.093 1089.22 197.093C1094.49 197.093 1098.34 199.537 1100.41 204.424V184.123H1109.81V240.516L1109.76 240.469ZM1100.32 215.844C1100.32 212.46 1099.52 209.829 1097.92 207.949C1096.32 206.069 1094.21 205.129 1091.67 205.129C1088.9 205.129 1086.73 206.351 1085.14 208.748C1083.54 211.145 1082.79 214.81 1082.79 219.603C1082.79 228.908 1085.7 233.561 1091.53 233.561C1093.83 233.561 1095.9 232.574 1097.68 230.553C1099.47 228.532 1100.36 225.995 1100.36 222.893V215.844H1100.32Z" fill="#4965AB"/>
<path d="M1137.35 241.359C1131.19 241.359 1126.49 239.15 1123.2 234.686C1119.91 230.221 1118.31 225.193 1118.31 219.46C1118.31 213.304 1120.1 208.134 1123.72 204.046C1127.34 199.957 1132.03 197.89 1137.96 197.89C1143.55 197.89 1148.15 199.863 1151.73 203.858C1155.3 207.852 1157.13 213.022 1157.13 219.413C1157.13 225.804 1155.25 231.302 1151.54 235.297C1147.82 239.291 1143.08 241.312 1137.35 241.312V241.359ZM1137.67 233.558C1144.02 233.558 1147.17 228.859 1147.17 219.413C1147.17 215.136 1146.41 211.8 1144.91 209.309C1143.41 206.818 1141.06 205.597 1137.91 205.597C1134.76 205.597 1132.27 206.865 1130.67 209.403C1129.07 211.941 1128.32 215.324 1128.32 219.554C1128.32 224.112 1129.17 227.59 1130.81 229.939C1132.46 232.289 1134.76 233.511 1137.63 233.511L1137.67 233.558Z" fill="#4965AB"/>
<path d="M1196.14 198.737L1181.99 240.468H1174.19L1159.71 198.737H1169.54L1179.26 227.028L1188.76 198.737H1196.14Z" fill="#4965AB"/>
<path d="M1236.97 240.468H1228C1227.2 237.931 1226.73 235.111 1226.54 232.056C1224.05 238.26 1219.3 241.361 1212.39 241.361C1208.26 241.361 1204.88 240.139 1202.39 237.696C1199.89 235.252 1198.63 232.197 1198.63 228.485C1198.63 218.898 1207.04 214.105 1223.86 214.105C1224.52 214.105 1225.41 214.105 1226.54 214.105V210.956C1226.54 206.633 1223.58 204.471 1217.71 204.471C1211.83 204.471 1208.73 206.633 1207.98 210.956L1199.94 209.781C1200.36 206.304 1202.15 203.437 1205.3 201.228C1208.45 199.02 1212.96 197.845 1218.93 197.845C1222.17 197.845 1224.8 198.127 1226.82 198.644C1228.84 199.161 1230.58 200.1 1231.99 201.369C1233.4 202.638 1234.39 204.048 1234.9 205.552C1235.42 207.056 1235.7 209.593 1235.7 213.165V232.009C1235.7 234.735 1236.13 237.555 1236.93 240.421L1236.97 240.468ZM1226.54 219.227C1214.37 219.227 1208.31 222.141 1208.31 227.921C1208.31 229.66 1208.92 231.116 1210.14 232.338C1211.36 233.56 1213.19 234.171 1215.68 234.171C1219.26 234.171 1221.98 233.043 1223.81 230.74C1225.65 228.438 1226.54 225.9 1226.54 222.986V219.133V219.227Z" fill="#4965AB"/>
<path d="M767.318 4.22974H757.919V240.75H767.318V4.22974Z" fill="#4965AB"/>
</svg>
