<?xml version="1.0" encoding="UTF-8"?>
<svg id="_Слой_2" data-name="Слой 2" xmlns="http://www.w3.org/2000/svg" viewBox="0 0 145.72 52.56">
  <defs>
    <style>
      .cls-1 {
        fill: #fff;
      }
    </style>
  </defs>
  <g id="_Слой_1-2" data-name="Слой 1">
    <g>
      <path class="cls-1" d="M35.69,51.48l-2.42-7.27h-17.15l-2.17,7.27H0L16.06,1.08h16.23l16.67,50.4h-13.27ZM19.44,33.12h10.15l-5.11-17.14-5.04,17.14Z"/>
      <path class="cls-1" d="M70.48,52.56c-5.33,0-9.75-1.13-13.25-3.38-3.5-2.26-5.95-5.3-7.34-9.14l11.02-6.41c1.87,4.46,5.18,6.7,9.94,6.7,3.94,0,5.9-1.12,5.9-3.35,0-1.48-1.13-2.66-3.4-3.57-.96-.4-3.06-1.06-6.32-2-4.61-1.34-8.26-3.23-10.94-5.65-2.69-2.42-4.03-5.8-4.03-10.12,0-4.66,1.67-8.42,5-11.3,3.34-2.88,7.5-4.32,12.49-4.32,4.22,0,7.97.98,11.23,2.95,3.26,1.97,5.76,4.82,7.49,8.57l-10.8,6.34c-1.58-3.74-4.2-5.62-7.85-5.62-1.54,0-2.7.31-3.49.94s-1.19,1.42-1.19,2.39c0,1.11.59,2.05,1.76,2.82,1.17.77,3.46,1.67,6.86,2.68,2.4.86,4.35,1.57,5.87,2.11,1.52.55,3.16,1.41,4.94,2.58,1.78,1.17,3.1,2.68,3.96,4.53.87,1.84,1.3,4.01,1.3,6.5,0,4.94-1.75,8.81-5.26,11.59-3.5,2.78-8.14,4.18-13.9,4.18Z"/>
      <path class="cls-1" d="M145.72,1.08v50.4h-12.82v-27.14l-12.24,20.23h-1.3l-12.17-20.16v27.07h-12.89V1.08h12.89l12.82,21.53,12.89-21.53h12.82Z"/>
    </g>
  </g>
</svg>